<?xml version="1.0" encoding="UTF-8" standalone="no"?>
<svg viewBox="0 0 558.70056 404.57626" xmlns="http://www.w3.org/2000/svg" xmlns:xlink="http://www.w3.org/1999/xlink">
<defs>
<linearGradient id="linearGradient4130">
<stop offset="0" stop-color="#dbe2e3"/>
<stop offset="1" stop-color="#dbe2e3" stop-opacity="0"/>
</linearGradient>
<linearGradient id="linearGradient4044">
<stop offset="0" stop-color="#e1e1e1"/>
<stop offset="1" stop-color="#d6d6d6" stop-opacity="0"/>
</linearGradient>
<linearGradient id="linearGradient3664">
<stop offset="0" stop-color="#cddffa"/>
<stop offset="1" stop-color="#0055d4" stop-opacity="0"/>
</linearGradient>
<linearGradient gradientUnits="userSpaceOnUse" id="linearGradient4299" x2="0" xlink:href="#linearGradient3664" y1="642.36218" y2="602.36218"/>
<linearGradient gradientUnits="userSpaceOnUse" id="linearGradient4301" x1="380" x2="530" xlink:href="#linearGradient3664" y1="672.36218" y2="752.36218"/>
<linearGradient gradientUnits="userSpaceOnUse" id="linearGradient4303" x1="360" x2="150" xlink:href="#linearGradient3664" y1="672.36218" y2="762.36218"/>
<linearGradient gradientUnits="userSpaceOnUse" id="linearGradient4305" x1="101.66682" x2="260.23829" xlink:href="#linearGradient4130" y1="443.96832" y2="486.4574"/>
<linearGradient gradientUnits="userSpaceOnUse" id="linearGradient4307" x2="0" xlink:href="#linearGradient4044" y1="439.04528" y2="567.86911"/>
<linearGradient gradientUnits="userSpaceOnUse" id="linearGradient4309" x1="130.59005" x2="237.48498" xlink:href="#linearGradient4044" y1="421.57683" y2="392.93441"/>
<linearGradient gradientUnits="userSpaceOnUse" id="linearGradient4311" x2="0" xlink:href="#linearGradient4130" y1="437.22538" y2="564.3497"/>
<linearGradient gradientUnits="userSpaceOnUse" id="linearGradient4313" x1="162.35326" x2="241.26162" xlink:href="#linearGradient4130" y1="427.59261" y2="402.47228"/>
<linearGradient gradientUnits="userSpaceOnUse" id="linearGradient4315" x1="102.63009" x2="221.49753" xlink:href="#linearGradient4130" y1="474.79318" y2="506.64364"/>
<linearGradient gradientUnits="userSpaceOnUse" id="linearGradient4317" x1="103.59337" x2="187.3563" xlink:href="#linearGradient4130" y1="504.65476" y2="553.01532"/>
<linearGradient gradientUnits="userSpaceOnUse" id="linearGradient4319" x2="0" xlink:href="#linearGradient4130" y1="441.07837" y2="543.18595"/>
<linearGradient gradientUnits="userSpaceOnUse" id="linearGradient4321" x1="192.30065" x2="261.46082" xlink:href="#linearGradient4130" y1="432.90639" y2="414.37495"/>
<linearGradient gradientUnits="userSpaceOnUse" id="linearGradient4323" x1="216.46973" x2="216.47021" xlink:href="#linearGradient4130" y1="443.00504" y2="519.1111"/>
<linearGradient gradientUnits="userSpaceOnUse" id="linearGradient4325" x1="218.22331" x2="249.56773" xlink:href="#linearGradient4130" y1="437.22538" y2="428.82671"/>
<linearGradient gradientUnits="userSpaceOnUse" id="linearGradient4327" x1="140.44902" x2="222.3104" xlink:href="#linearGradient4130" y1="407.31357" y2="429.24823"/>
<linearGradient gradientUnits="userSpaceOnUse" id="linearGradient4329" x1="102.63009" x2="168.3254" xlink:href="#linearGradient4130" y1="534.51634" y2="552.11932"/>
<linearGradient gradientUnits="userSpaceOnUse" id="linearGradient4331" x1="103.59337" x2="123.09876" xlink:href="#linearGradient4130" y1="564.37792" y2="569.60433"/>
<linearGradient gradientUnits="userSpaceOnUse" id="linearGradient4333" x2="0" xlink:href="#linearGradient4130" y1="452.63769" y2="485.95"/>
<linearGradient gradientUnits="userSpaceOnUse" id="linearGradient4335" x1="250.09726" x2="276.44438" xlink:href="#linearGradient4130" y1="444.46571" y2="437.9068"/>
<linearGradient gradientUnits="userSpaceOnUse" id="linearGradient4337" x1="274.26634" x2="274.26643" xlink:href="#linearGradient4130" y1="454.56436" y2="468.00556"/>
<linearGradient gradientUnits="userSpaceOnUse" id="linearGradient4339" x1="276.01992" x2="288.54397" xlink:href="#linearGradient4130" y1="448.7847" y2="446.25999"/>
<linearGradient gradientUnits="userSpaceOnUse" id="linearGradient4341" x1="175.12699" x2="236.27017" xlink:href="#linearGradient4130" y1="399.60736" y2="415.9906"/>
</defs>
<g transform="translate(-100.70354,-377.50222)">
<g transform="matrix(1.92655,0,0,1.92655,-226.81059,-782.98087)">
<path d="m270,732.36218 190,40-100,40-190-50 100-30z" fill="#04a" fill-rule="evenodd"/>
<path d="m170,622.36218 100-20v130l-100,30v-140z" fill="#06f" fill-rule="evenodd"/>
<path d="m270,602.36218 190,30v140l-190-40v-130z" fill="#2a7fff" fill-rule="evenodd"/>
<path d="m360,657.36218 100-25v140l-100,40v-155z" fill="#06f" fill-rule="evenodd" opacity=".81"/>
<path d="m170,622.36218 190,35v155l-190-50v-140z" fill="#2a7fff" fill-rule="evenodd" opacity=".81"/>
<path d="m270,602.36218 190,30-100,25-190-35 100-20z" fill="#0055d4" fill-rule="evenodd"/>
<path d="m270,602.36218 190,30-100,25-190-35 100-20z" fill="url(#linearGradient4299)" fill-rule="evenodd" opacity=".537"/>
<path d="m360,657.36218 100-25v140l-100,40v-155z" fill="url(#linearGradient4301)" fill-rule="evenodd" opacity=".53659"/>
<path d="m170,622.36218 190,35v155l-190-50v-140z" fill="url(#linearGradient4303)" fill-rule="evenodd" opacity=".537"/>
</g>
<path d="m466.74874,516.21408v3.85311l-366.0452-73.20904v-1.92655l366.0452,71.28248z" fill="url(#linearGradient4305)" fill-rule="evenodd"/>
<path d="m129.60184,421.36127 3.823.72261 .0301,272.29126-3.8531-.99337v-272.0205h5e-005z" fill="url(#linearGradient4307)" fill-rule="evenodd"/>
<path d="m339.31671,384.59631-205.87245,37.53159-3.87661-.74844 206.15348-37.3024 3.59558.51925z" fill="url(#linearGradient4309)" fill-rule="evenodd"/>
<path d="m162.4701,427.38283 .0154,274.74056-3.86762-1.01778-.002-274.43264 3.84357.70803 .01.002z" fill="url(#linearGradient4311)" fill-rule="evenodd"/>
<path d="m369.81113,389.57362-207.33507,37.81031-3.85941-.70645 207.88427-37.62652 3.31021.52266z" fill="url(#linearGradient4313)" fill-rule="evenodd"/>
<path d="m466.74874,545.11239v3.85311l-366.0452-73.20904v-1.92656l366.0452,71.28249z" fill="url(#linearGradient4315)" fill-rule="evenodd"/>
<path d="m466.74874,574.01069v3.85311l-366.0452-73.23977v-1.92655l366.0452,71.31321z" fill="url(#linearGradient4317)" fill-rule="evenodd"/>
<path d="m187.45537,431.98939 3.82299.72262 .0318,276.88262-3.87946-1.02092 .0247-276.58432h5e-005z" fill="url(#linearGradient4319)" fill-rule="evenodd"/>
<path d="m400.85007,394.4745-209.55229,38.28153-3.87661-.74845 210.03098-38.06961 3.39792.53653z" fill="url(#linearGradient4321)" fill-rule="evenodd"/>
<path d="m220.32362,438.01095 .0154,279.22287-3.86762-1.01778-.002-278.91495 3.84357.70803 .01.002h.00071z" fill="url(#linearGradient4323)" fill-rule="evenodd"/>
<path d="m430.50901,399.15749-210.17943,38.85456-3.85941-.70645 211.38371-38.56735 2.65513.41924z" fill="url(#linearGradient4325)" fill-rule="evenodd"/>
<path d="m505.84557,473.68847-9.72353,2.43087-359.1487-67.34001 2.5124-.50248 366.35983,65.41162z" fill="url(#linearGradient4327)" fill-rule="evenodd"/>
<path d="m466.74874,604.83555v3.85311l-366.0452-73.20904v-1.92655l366.0452,71.28248z" fill="url(#linearGradient4329)" fill-rule="evenodd"/>
<path d="m466.74874,633.73386v3.85311l-366.0452-73.23977v-1.92656l366.0452,71.31322z" fill="url(#linearGradient4331)" fill-rule="evenodd"/>
<path d="m245.25198,443.54872 3.82299.72261 .0318,276.88262-3.87946-1.02092 .0247-276.58431h6e-005z" fill="url(#linearGradient4333)" fill-rule="evenodd"/>
<path d="m458.64668,406.03382-209.55229,38.28153-3.87661-.74845 210.03098-38.0696 3.39792.53652z" fill="url(#linearGradient4335)" fill-rule="evenodd"/>
<path d="m278.12024,449.57028 .0154,279.22286-3.86762-1.01778-.002-278.91494 3.84357.70802 .01.002h.00072z" fill="url(#linearGradient4337)" fill-rule="evenodd"/>
<path d="m488.30563,410.71681-210.17944,38.85456-3.85941-.70644 211.38371-38.56736 2.65514.41924z" fill="url(#linearGradient4339)" fill-rule="evenodd"/>
<path d="m540.52353,465.98226-9.72352,2.43087-359.1487-67.34001 2.5124-.50248 366.35982,65.41162z" fill="url(#linearGradient4341)" fill-rule="evenodd"/>
</g>
</svg>
