<?xml version="1.0" encoding="UTF-8" standalone="no"?>
<!DOCTYPE svg PUBLIC "-//W3C//DTD SVG 20010904//EN" "http://www.w3.org/TR/2001/REC-SVG-20010904/DTD/svg10.dtd">
<svg preserveAspectRatio="xMinYMin meet" viewBox="0 0 744.09447 1052.362179" xmlns="http://www.w3.org/2000/svg">
<path d="m291.34375-65.6875c-10.8681.53434-20.7122,6.54732-26.15625,15.96875l-405.625,702.625c-5.72548,9.91086-5.72052,22.11697 0,32.03125s16.27297,16.02815 27.71875,16.03125l807.875.15625c11.41896-.00636 21.96022-6.08998 27.6875-15.96875s5.7621-22.05583.09375-31.96875l-402.25-702.78125c-5.98232-10.45852-17.30927-16.67695-29.34375-16.09375z" fill="none" stroke="#000" stroke-linecap="round" stroke-width="12.5" transform="matrix(.80662,0,0,.80662,133.1910,123.1534)"/>
<path d="m292.90625-32.375c-134.83044,233.55375-269.66956,467.1025-404.5,700.65625l805.625.15625-401.125-700.8125z" fill="#fc0" fill-rule="evenodd" stroke="#000" stroke-linecap="round" stroke-linejoin="round" stroke-width="29.44396" transform="matrix(.80662,0,0,.80662,133.1910,123.1534)"/>
<path d="m380.53759,215.25021-7.92191,7.89377c-2.9096-2.07824-6.23121-4.56113-7.89377-5.80756 9.14423,7.89682 5.00438,20.76821 5.8357,31.57508-16.21028,11.22213-2.50246,28.75239-3.74958,44.00776 .75248-1.35428 1.56693-2.68821 2.0863-4.11604 6.23472,3.74085 3.32954,12.4898 9.97989,14.1524-2.49389-15.37849-11.64182-30.34898-8.31661-45.72747l9.97998,7.89377c0-4.57214 1.23811-9.5723-3.74949-12.06619-4.57216-12.46947-.40642-26.58352 3.74949-37.80552zm-13.72956,77.69724c-1.35151,2.43303-2.64211,4.89541-2.45266,7.89377 1.43603-2.52787 2.22712-5.17146 2.45266-7.89377zm-2.45266,7.92196c-1.24063,2.17757-2.94794,4.26493-5.44111,6.23044-6.65034,10.39122 3.32594,21.21182 1.66337,29.93994-38.23922,42.39567-48.62399,113.8887-109.72338,129.68334l2.05797,59.85168 66.11036-26.19039 3.72135,4.14423c-19.95067,11.22405-42.37556,17.45454-63.57299,25.76751 15.37842,3.74085 10.36826,25.35982 27.82549,27.85373 23.27579-6.23473 39.48581,15.81143 59.85164,22.04617 5.40349,29.50594 34.52076,8.71007 49.89999,26.1622l71.88958-24.10418-2.08612-59.85169c-22.86026-19.53703-31.17019-57.36354-24.10423-87.70541l-7.89377,9.97998c-1.3091-.65454-1.72291-1.66695-1.91705-2.76282 .19522,3.21206.17348,6.46475-2.22722,8.59857l-3.15751-1.83248c9.15154,7.71483 8.6523,21.39369 13.13758,31.74423 5.81902,8.72812-.41977,16.62605-9.98007,16.21042l-47.81368-29.91175c-4.98724-41.56437-7.0546-86.45563-5.80747-128.02001 18.70363,24.10763 39.48454,49.85651 43.64126,78.12012 .83124-2.49389-1.23837-6.65457 2.08612-8.31665 3.74093,2.07824 3.7366,5.82276 6.23049,8.31665v-9.97998l3.72134,1.66333c-19.53495-22.86069-33.64116-49.85307-51.92972-71.4668l-3.74949-2.08621c7.06596-4.98779 8.72482-12.06264 7.89377-19.95996-3.32522-7.89733-14.14122-6.21892-19.95996-12.038-.20515-.71791-.32297-1.4261-.36654-2.08621zm62.89637,147.81082c-1.87339-1.57934-3.99749-3.01443-6.82238-4.00327l6.82238,4.00327zm-62.52983-137.83084c2.49389,2.90955 2.0863,7.88151 2.08612,12.038 9e-005,5.81909-7.48979-7.88151-2.08612-12.038zm4.17242,31.99796 3.72135,101.82961c-16.21038,14.54721-27.0151-9.56433-41.97798-9.97998v61.9379c-5.40349-19.95065 3.74444-46.53866-7.89377-63.99591l-19.93172,9.95178v-5.80756l56.10205-83.95586-4.17242,87.7054 5.83579,6.23044 4.14428-6.23044 4.17242-97.68538zm1.66328,109.72338c4.57216,22.86069 8.7159,47.8087 4.14419,71.91787-27.84841,9.55992-54.86097,21.20335-83.95578,27.85373-2.90951-6.65036-13.30592-2.92191-11.64336-12.06619l81.47497-29.91174c9.55994-17.04314-1.239-34.91705 2.08621-53.62125l7.89377-4.17242zm71.88968,45.72748c4.57216,18.70573 8.74458,44.05273 4.17242,66.08212l-77.72538,27.85373c-4.98787,1e-005-9.15668-2.06672-12.06619-5.80756l73.58111-26.1904c16.62599-15.379 2.48171-38.25663 4.14427-57.79366l7.89377-4.14423zm-107.63717,6.23044c2.90951.83129 5.81549,1.25565 7.89377,3.74954-.41517,4.15802-8.30939.82259-7.89377-3.74954zm44.0641,25.76751c15.79412,6.65039 30.32082,17.46178 45.69932,26.1904-17.45677-3.74083-30.73644-17.04612-45.69932-26.1904z"/>
</svg>
